<?xml version="1.0" standalone="no"?>
<!DOCTYPE svg PUBLIC "-//W3C//DTD SVG 20010904//EN"
 "http://www.w3.org/TR/2001/REC-SVG-20010904/DTD/svg10.dtd">
<svg version="1.0" xmlns="http://www.w3.org/2000/svg"
 width="478.000000pt" height="478.000000pt" viewBox="0 0 478.000000 478.000000"
 preserveAspectRatio="xMidYMid meet">
<metadata>
Created by potrace 1.11, written by Peter Selinger 2001-2013
</metadata>
<g transform="translate(0.000000,478.000000) scale(0.100000,-0.100000)"
fill="#000000" stroke="none">
<path d="M1976 3985 c-58 -21 -107 -66 -139 -128 -26 -50 -29 -66 -29 -159 -1
-122 6 -159 39 -213 40 -63 102 -106 176 -119 l37 -7 0 -298 0 -298 -55 3
c-41 2 -71 11 -118 37 -34 19 -120 65 -192 102 -71 37 -143 75 -160 85 -16 9
-79 43 -140 75 -60 32 -144 76 -185 98 -140 75 -168 87 -204 87 -27 0 -36 4
-37 18 0 9 -1 41 -2 70 -1 30 2 56 6 59 5 3 24 5 43 5 19 0 44 8 56 18 21 17
23 26 22 137 -1 110 -3 121 -27 160 -14 22 -39 50 -55 62 -26 18 -91 38 -117
36 -46 -4 -86 -20 -118 -46 -59 -49 -70 -79 -73 -206 -3 -99 -1 -114 17 -137
11 -14 23 -25 27 -25 4 1 27 1 52 0 l45 -1 -1 -62 c-1 -35 -3 -69 -3 -75 -1
-9 -18 -13 -51 -13 -77 0 -90 -18 -90 -130 0 -79 -2 -90 -18 -90 -24 0 -91
-37 -125 -69 -16 -14 -38 -44 -50 -66 -20 -37 -21 -56 -23 -280 -1 -164 3
-253 11 -281 23 -78 89 -141 168 -162 29 -8 32 -12 38 -58 8 -67 44 -119 100
-147 l46 -24 551 1 c303 1 548 -2 544 -5 -8 -7 -402 -119 -419 -119 -5 0 -18
9 -29 21 -47 52 -151 77 -215 51 -15 -6 -43 -25 -63 -42 l-36 -32 -78 20 c-42
12 -142 40 -222 62 -80 23 -177 50 -216 60 -122 33 -117 29 -119 93 -1 43 -6
61 -21 72 -27 20 -61 18 -84 -5 -19 -19 -20 -33 -20 -205 0 -159 -2 -185 -15
-185 -36 0 -142 -44 -197 -81 -79 -54 -163 -164 -184 -244 -20 -70 -24 -101
-23 -161 5 -208 135 -386 335 -454 44 -15 79 -19 162 -17 100 2 112 5 182 38
262 125 361 420 227 673 -59 110 -181 205 -304 237 -29 7 -53 15 -54 18 -4 26
-3 105 2 113 4 6 100 -16 245 -57 374 -105 345 -93 361 -149 16 -56 75 -117
127 -133 112 -34 229 29 257 139 9 31 18 48 28 48 9 0 34 7 56 14 80 28 516
147 523 142 6 -3 7 -54 3 -113 -1 -6 -19 -14 -42 -18 -64 -11 -172 -71 -230
-128 -150 -146 -188 -364 -98 -562 7 -16 16 -32 19 -35 3 -3 18 -23 34 -44 49
-65 87 -95 174 -138 72 -36 93 -41 170 -46 137 -7 228 19 330 95 28 21 61 52
74 68 12 17 25 32 29 35 3 3 18 29 33 57 124 246 26 539 -219 658 -38 19 -85
36 -103 39 -19 2 -36 7 -39 10 -11 10 -8 206 2 207 6 0 305 1 665 2 l655 2 35
23 c19 12 40 24 46 28 15 7 190 -81 196 -98 2 -7 4 -46 3 -87 l-1 -74 -53 -14
c-173 -44 -319 -193 -358 -363 -11 -46 -9 -172 3 -218 36 -139 133 -261 254
-321 84 -40 106 -45 215 -45 111 0 132 4 220 48 250 124 339 439 194 682 -60
101 -181 190 -293 216 l-56 13 0 183 c0 180 0 183 -24 207 -22 22 -28 23 -56
14 -33 -12 -54 -47 -44 -74 4 -8 3 -15 0 -15 -18 0 -146 72 -147 83 0 6 -2
123 -2 258 l-2 245 -28 43 c-38 58 -103 88 -186 86 -34 -1 -61 3 -61 7 0 5
-11 19 -23 32 -29 29 -72 25 -89 -8 -6 -11 -15 -24 -20 -27 -14 -9 -82 -2 -86
9 -17 52 -74 60 -109 16 -17 -22 -31 -29 -58 -29 -19 -1 -35 4 -35 10 0 14
-41 52 -55 50 -29 -3 -53 -18 -62 -37 -7 -15 -19 -21 -46 -23 -29 -1 -35 1
-25 11 7 6 199 122 426 258 l412 247 87 -68 c49 -37 95 -73 103 -80 8 -7 56
-44 105 -83 50 -39 101 -80 115 -91 14 -11 73 -57 132 -102 59 -45 107 -86
107 -92 0 -5 -21 -33 -47 -60 -26 -28 -78 -85 -116 -128 l-68 -77 -64 0 c-35
0 -64 -4 -64 -8 0 -4 13 -28 28 -53 125 -196 399 -215 545 -37 99 121 100 294
1 424 -15 19 -136 120 -268 224 -133 104 -245 193 -251 198 -158 129 -299 232
-326 237 -30 5 -48 -2 -142 -59 -59 -36 -112 -66 -117 -66 -4 0 -10 -3 -12 -8
-1 -4 -164 -104 -361 -222 -418 -251 -426 -256 -452 -270 -11 -6 -40 -24 -65
-40 -25 -16 -56 -35 -70 -41 -32 -15 -240 -19 -241 -5 -5 57 -2 579 3 582 4 2
36 6 73 8 85 4 114 28 123 104 l7 51 75 -33 c61 -27 80 -32 102 -24 36 13 40
31 40 190 0 213 0 216 -22 238 -24 24 -43 22 -123 -14 -32 -14 -62 -26 -67
-26 -6 0 -10 16 -10 35 0 46 -16 78 -50 98 -23 14 -57 17 -207 17 -125 -1
-190 -5 -217 -15z m-592 -2216 c75 -35 34 -152 -49 -140 -67 10 -83 110 -22
139 29 14 41 14 71 1z m-825 -165 c31 -6 41 -29 22 -49 -5 -6 -23 -37 -41 -70
-18 -33 -39 -69 -47 -80 -13 -20 -14 -20 -19 3 -4 12 -10 22 -15 22 -5 0 -9 4
-9 9 0 5 -18 39 -40 77 -22 38 -36 71 -32 75 18 17 123 24 181 13z m1749 -7
l31 -13 -61 -103 c-33 -56 -61 -101 -63 -99 -11 13 -115 201 -115 208 0 20
164 26 208 7z m1751 -3 c10 -9 -90 -196 -108 -202 -5 -2 -20 16 -33 40 -43 74
-88 157 -88 162 0 17 213 17 229 0z m-3762 -131 c21 -38 40 -72 42 -78 2 -5
12 -21 22 -34 11 -13 19 -26 19 -30 0 -3 -56 -6 -125 -7 -69 0 -125 3 -125 8
0 29 47 124 81 162 22 25 42 46 44 46 2 0 21 -30 42 -67z m505 -47 c25 -49 39
-96 30 -97 -25 -5 -242 -3 -242 2 0 3 11 23 25 43 14 20 25 39 25 41 0 2 17
31 37 65 l37 62 34 -38 c18 -21 43 -56 54 -78z m1298 -92 c0 -7 -39 -10 -117
-10 l-118 2 3 24 c5 37 42 106 81 151 l34 41 58 -99 c32 -54 58 -103 59 -109z
m1679 100 c33 -55 57 -101 55 -103 -5 -6 -215 -9 -231 -4 -25 9 27 123 85 185
14 15 27 26 29 24 2 -2 30 -48 62 -102z m-1287 54 c32 -40 59 -94 72 -143 6
-20 2 -21 -114 -21 -66 0 -120 3 -120 6 0 3 6 14 14 25 7 11 24 38 36 60 12
22 31 57 43 78 11 20 24 37 28 37 4 0 23 -19 41 -42z m1724 10 c30 -33 84
-135 84 -160 0 -10 -26 -13 -117 -12 -65 1 -119 2 -120 3 -2 0 8 20 22 44 14
23 39 68 57 100 18 31 35 57 38 57 3 0 20 -15 36 -32z m-3858 -320 c-8 -13
-36 -60 -63 -106 l-47 -83 -25 22 c-25 24 -93 152 -93 175 0 11 25 14 121 14
l121 0 -14 -22z m482 18 c0 -40 -91 -196 -115 -196 -10 0 -69 93 -122 193 -2
4 50 7 116 7 67 0 121 -2 121 -4z m1252 -28 c-11 -18 -38 -66 -61 -105 -23
-40 -44 -73 -48 -73 -23 0 -103 124 -117 183 l-6 27 126 0 126 0 -20 -32z
m472 5 c-13 -69 -102 -195 -121 -171 -14 18 -113 188 -113 194 0 2 54 4 119 3
l119 -1 -4 -25z m1258 -5 c-11 -18 -38 -66 -61 -105 -23 -40 -44 -73 -46 -73
-11 0 -66 69 -83 105 -22 45 -42 94 -42 100 0 3 57 5 126 5 l126 0 -20 -32z
m472 5 c-11 -44 -50 -115 -83 -151 l-30 -32 -49 82 c-27 46 -54 93 -61 106
l-12 22 121 0 120 0 -6 -27z m-3745 -139 c34 -58 61 -107 61 -109 0 -8 -62
-19 -120 -20 -54 -2 -113 8 -129 21 -6 5 115 214 124 214 2 0 31 -48 64 -106z
m1733 -7 l57 -102 -37 -11 c-50 -16 -179 -10 -197 8 -4 4 5 26 19 50 14 23 39
69 57 101 17 31 35 57 38 57 3 -1 32 -47 63 -103z m1686 81 c6 -13 25 -45 41
-73 65 -108 64 -103 41 -115 -39 -21 -194 -17 -218 5 -5 5 111 205 119 205 3
0 11 -10 17 -22z"/>
</g>
</svg>
